<?xml version="1.0" encoding="UTF-8" standalone="no"?>
<!DOCTYPE svg PUBLIC "-//W3C//DTD SVG 1.1//EN" "http://www.w3.org/Graphics/SVG/1.1/DTD/svg11.dtd">
<svg width="100%" height="100%" viewBox="0 0 3508 2481" version="1.1" xmlns="http://www.w3.org/2000/svg" xmlns:xlink="http://www.w3.org/1999/xlink" xml:space="preserve" xmlns:serif="http://www.serif.com/" style="fill-rule:evenodd;clip-rule:evenodd;stroke-linecap:round;stroke-linejoin:round;stroke-miterlimit:1.5;">
    <g transform="matrix(1.03484,0,0,0.985693,-122.226,35.485)">
        <rect x="118.11" y="-36" width="3389.76" height="2516.32" style="fill:white;"/>
    </g>
    <g id="background" transform="matrix(1,0,0,1,0,-85.4016)">
        <g transform="matrix(0.954555,0,0,1,-23.4439,-60.2795)">
            <path d="M3254,2253L470,2253L656.072,1936L3067.93,1936L3254,2253Z" style="fill:rgb(134,202,149);"/>
        </g>
        <g transform="matrix(0.947859,0,0,0.456028,-51.8773,404.536)">
            <rect x="691" y="118.11" width="2428.6" height="517.996" style="fill:rgb(246,243,204);"/>
        </g>
        <g transform="matrix(1.43339,0,0,1,-1289.91,1.02318e-12)">
            <rect x="2803" y="694.618" width="123.598" height="1181.1" style="fill:rgb(246,243,204);"/>
        </g>
        <g transform="matrix(5.73358,0,0,1,-15468.4,6.82121e-13)">
            <rect x="2803" y="694.618" width="123.598" height="1181.1" style="fill:rgb(246,243,204);"/>
        </g>
    </g>
    <g id="door-l" transform="matrix(1,0,0,1,96.1981,-79.4016)">
        <g transform="matrix(-0.753895,0,0,0.69395,3093.98,384.668)">
            <rect x="1552" y="438" width="940" height="1702" style="fill:rgb(229,229,229);"/>
            <path d="M2492,438L1552,438L1552,2140L2492,2140L2492,438ZM2486.47,444.004L2486.47,2134L1557.53,2134L1557.53,444.004L2486.47,444.004Z" style="fill:rgb(51,51,51);"/>
        </g>
        <g transform="matrix(-1.0869,0,0,1.11425,3574.22,68.5374)">
            <rect x="1953" y="662" width="163" height="424" style="fill:rgb(179,179,179);"/>
        </g>
        <g transform="matrix(-1.01237,0,0,0.689695,2966.68,423.915)">
            <rect x="1660" y="1330" width="35" height="137" style="fill:rgb(179,179,179);"/>
        </g>
    </g>
    <g id="door-r" transform="matrix(1,0,0,1,-157.408,-85.4016)">
        <g transform="matrix(0.753895,0,0,0.69395,770.892,390.668)">
            <rect x="1552" y="438" width="940" height="1702" style="fill:rgb(230,230,230);"/>
            <path d="M2492,438L2492,2140L1552,2140L1552,438L2492,438ZM2486.47,444.004L1557.53,444.004L1557.53,2134L2486.47,2134L2486.47,444.004Z" style="fill:rgb(51,51,51);"/>
        </g>
        <g transform="matrix(1.0869,0,0,1.11425,290.654,74.5374)">
            <rect x="1953" y="662" width="163" height="424" style="fill:rgb(179,179,179);"/>
        </g>
        <g transform="matrix(1.01237,0,0,0.689695,898.192,429.915)">
            <rect x="1660" y="1330" width="35" height="137" style="fill:rgb(179,179,179);"/>
        </g>
    </g>
    <g id="rope" transform="matrix(1,0,0,1,0,-85.4016)">
        <path d="M2760.69,1365L2905.06,1386" style="fill:none;stroke:rgb(77,103,127);stroke-width:16.67px;"/>
        <path d="M2439.04,760.63L2660.26,760.63C2660.26,760.63 2668.98,761.497 2675,766.63C2679.97,770.863 2683.61,780.461 2683.61,780.461L2760.69,1365" style="fill:none;stroke:rgb(77,103,127);stroke-width:16.67px;"/>
        <g transform="matrix(1.08717,-0.0010195,-0.0010195,1.00001,-159.649,1.86715)">
            <path d="M1848.49,1458.66L1110.29,1475.62L1050.01,1475.56" style="fill:none;stroke:rgb(77,103,127);stroke-width:15.97px;"/>
        </g>
    </g>
    <g transform="matrix(0.178914,0,0,0.178914,2760.69,1388.61)">
        <g transform="matrix(1,0,0,1,-493.75,-862.5)">
            <g id="アートボード1" transform="matrix(3.89873,0,0,3.9448,-1296.95,-2405.15)">
                <g transform="matrix(0.992038,0,0,0.951777,-801.206,-920.6)">
                    <path d="M1270.21,1958.3L1350.67,1994.46L1270.21,2030.62L1189.75,1994.46L1270.21,1958.3Z" style="fill:rgb(100,178,245);"/>
                </g>
                <g transform="matrix(1.06872,0,0,1.05624,-898.613,-1255.61)">
                    <rect x="1195.52" y="2001.01" width="149.371" height="113.366" style="fill:rgb(100,178,245);"/>
                </g>
                <g transform="matrix(0.992038,0,0,0.951777,-801.206,-1039.29)">
                    <path d="M1270.21,1962.22C1280.12,1962.22 1350.67,1994.46 1350.67,1994.46L1189.75,1994.46C1189.75,1994.46 1260.29,1962.22 1270.21,1962.22Z" style="fill:rgb(100,178,245);"/>
                </g>
                <g transform="matrix(1.06872,0,0,1.05624,372.465,639.075)">
                    <path d="M73.174,356.481C71.712,356.206 69.312,355.561 67.841,355.047C63.853,353.656 15.876,332.769 13.587,331.427C12.5,330.79 10.554,329.272 9.263,328.054C5.47,324.476 3.1,320.493 1.595,315.167L0.842,312.5L0.739,265.333C0.668,232.513 0.748,217.32 1.002,215.385C1.422,212.181 2.23,209.819 3.697,207.506L4.73,205.877L3.392,203.355C0.826,198.517 0.953,200.102 0.62,168.833C0.457,153.433 0.368,129.208 0.423,115C0.514,91.639 0.579,88.975 1.103,87.167C2.587,82.047 4.961,77.67 7.949,74.544C8.802,73.652 20.938,62.429 34.917,49.606L60.333,26.289L60.334,10.833L61.283,8.833C62.938,5.348 66.047,3.085 71.23,1.593C73.444,0.955 74.631,0.843 79.167,0.843C83.702,0.843 84.889,0.955 87.103,1.593C90.536,2.581 92.74,3.73 94.675,5.54C97.279,7.976 97.576,9.056 98.02,17.693C98.261,22.386 98.545,25.303 98.785,25.533C98.995,25.735 111.542,37.165 126.667,50.933C141.792,64.701 154.64,76.611 155.219,77.399C158.524,81.901 160.482,86.929 160.999,92.238C161.439,96.758 161.431,192.268 160.991,196.112C160.645,199.129 159.202,203.466 158.048,204.957C157.446,205.736 157.453,205.781 158.552,207.957C160.814,212.436 160.689,208.999 160.59,264.033L160.5,313.833L159.397,317C158.106,320.707 155.998,324.245 153.422,327.027C149.742,331.002 148.388,331.67 119.334,343.839C102.371,350.944 91.336,355.384 89.334,355.908C85.253,356.977 77.303,357.259 73.175,356.481L73.174,356.481ZM87.333,348.05C89.981,347.35 141.478,325.898 143.858,324.503C145.925,323.292 149.101,319.928 150.298,317.682C150.877,316.597 151.646,314.551 152.008,313.135C152.649,310.63 152.667,309.272 152.667,263.007C152.667,222.145 152.598,215.222 152.177,213.805C151.202,210.521 154.487,209.518 119.94,223.645C100.723,231.503 88.062,236.502 86.44,236.871C83.161,237.617 77.386,237.62 74.253,236.878C73.017,236.585 58.542,230.77 42.087,223.957C25.631,217.143 11.852,211.502 11.467,211.422C10.905,211.304 10.611,211.591 9.967,212.888L9.167,214.5L9.079,262.808C8.983,315.579 8.892,312.85 10.881,316.947C12.057,319.37 14.528,322.261 16.699,323.755C18.283,324.844 67.607,346.506 71.12,347.656C75.596,349.12 82.638,349.291 87.333,348.05ZM78.725,343.229L78,342.457L78,294.062C78,246.111 78.006,245.661 78.667,245C79.079,244.587 79.778,244.333 80.5,244.333C81.222,244.333 81.921,244.587 82.333,245C82.994,245.661 83,246.111 83,294.109L83,342.55L82.229,343.275C81.204,344.238 79.654,344.217 78.725,343.229ZM19.743,317.444C19.51,317.35 19.098,316.845 18.827,316.322C18.234,315.173 18.592,313.945 19.735,313.209C20.76,312.549 66.815,294 67.429,294C67.693,294 68.305,294.311 68.788,294.691C69.761,295.456 69.985,297.109 69.25,298.101C68.743,298.785 22.033,317.677 20.941,317.64C20.515,317.626 19.976,317.537 19.743,317.444ZM116.215,308.171C103.408,302.984 92.73,298.535 92.487,298.286C92.243,298.037 91.944,297.425 91.821,296.925C91.642,296.192 91.794,295.822 92.607,295.008C93.162,294.454 93.838,294 94.111,294C94.716,294 109.32,299.849 122.314,305.178C132.76,309.462 142.164,313.409 142.417,313.711C143.725,315.274 142.527,317.701 140.479,317.635C139.94,317.618 129.022,313.359 116.215,308.171ZM85,228.928C87.559,228.309 149.104,203.018 149.923,202.249C150.348,201.85 151.176,200.546 151.764,199.352L152.833,197.181L152.833,144.285C152.833,115.192 152.735,91.29 152.614,91.17C152.494,91.05 138.09,96.799 120.605,103.947C98.771,112.872 88.012,117.108 86.254,117.471C82.708,118.204 77.485,118.152 74.167,117.352C72.567,116.967 58.965,111.522 40.167,103.744L8.833,90.779L8.583,92.18C8.445,92.951 8.459,116.514 8.615,144.541C8.933,201.856 8.666,196.66 11.517,201L12.941,203.167L42.585,215.429C58.889,222.173 73.026,227.994 74,228.364C77.364,229.642 81.228,229.841 85,228.928ZM78.971,221.906C78.68,221.683 78.268,221.172 78.054,220.772C77.765,220.228 77.667,207.926 77.667,172.163L77.667,124.282L78.641,123.308C79.833,122.116 80.98,122.062 82.231,123.138L83.167,123.942L83.34,220.274L82.474,221.304C81.538,222.416 79.983,222.683 78.971,221.906ZM85,109.504C87.287,108.896 149.323,83.589 149.329,83.262C149.341,82.63 145.324,78.864 121.43,57.107L95.693,33.671L94.243,34.65C88.237,38.703 73.828,39.093 66.302,35.407L63.772,34.167L38.678,57.177C16.406,77.601 11.182,82.626 11.692,83.137C12.048,83.492 74.343,109.104 75.825,109.504C78.061,110.108 82.732,110.108 85,109.504ZM86.5,29.233C87.417,28.979 88.654,28.518 89.25,28.21L90.333,27.65L90.333,24.289C90.333,21.223 90.282,20.949 89.75,21.159C84.508,23.233 76.024,23.464 70.316,21.687L68.333,21.07L68.333,27.343L69.413,28C70.378,28.587 73.39,29.389 76.167,29.798C78.019,30.071 84.819,29.699 86.5,29.233ZM81.889,14.669C84.801,14.291 87.915,13.235 88.825,12.317L89.5,11.637L88.667,10.984C88.208,10.624 86.783,9.994 85.5,9.582C80.771,8.065 72.185,8.83 69.623,10.996L68.833,11.665L69.762,12.493C70.782,13.404 73.492,14.303 76.333,14.673C78.947,15.014 79.233,15.014 81.889,14.669Z" style="fill:rgb(51,51,51);fill-rule:nonzero;"/>
                </g>
            </g>
        </g>
    </g>
    <g id="table" transform="matrix(1,0,0,1,-17.4771,-85.4016)">
        <g transform="matrix(1.23334,0,0,0.444083,84.1999,1079.19)">
            <path d="M865.138,1240.16L578,1240.16L621.071,921L822.067,921L865.138,1240.16Z" style="fill:rgb(194,128,0);"/>
        </g>
        <g transform="matrix(0.982068,0,0,0.36849,14.2934,1029.31)">
            <rect x="797.069" y="1629.92" width="360.604" height="48.079" style="fill:rgb(170,112,0);"/>
        </g>
        <g transform="matrix(0.495509,0,0,1.20323,460.686,-349.437)">
            <rect x="827" y="1659.77" width="38.138" height="215.955" style="fill:rgb(153,153,153);"/>
        </g>
        <g transform="matrix(0.495509,0,0,1.20323,649.663,-349.437)">
            <rect x="827" y="1659.77" width="38.138" height="215.955" style="fill:rgb(153,153,153);"/>
        </g>
        <g transform="matrix(0.619387,0,0,1.53138,581.468,-894.093)">
            <rect x="827" y="1659.77" width="38.138" height="215.955" style="fill:rgb(153,153,153);"/>
        </g>
        <g transform="matrix(0.619387,0,0,1.53138,319.263,-894.093)">
            <rect x="827" y="1659.77" width="38.138" height="215.955" style="fill:rgb(153,153,153);"/>
        </g>
    </g>
    <g transform="matrix(1,0,0,1,0,-85.4016)">
        <path d="M2374.02,674.421L1327.59,675.047C1327.59,675.047 1314.17,675.727 1301.02,683.005C1287.1,690.702 1279.99,703.079 1279.99,703.079L908.375,1512.09" style="fill:none;stroke:rgb(148,216,139);stroke-width:8.33px;"/>
    </g>
    <g id="board" transform="matrix(1,0,0,1,0,-85.4016)">
        <g transform="matrix(0.23622,0,0,0.192345,719.491,1247.93)">
            <path d="M837,1488.19L837,1611L812,1611L837,1488.19Z" style="fill:rgb(0,161,35);"/>
        </g>
        <g transform="matrix(-0.23622,0,0,0.192345,1132.92,1247.93)">
            <path d="M837,1488.19L837,1611L812,1611L837,1488.19Z" style="fill:rgb(0,161,35);"/>
        </g>
        <g transform="matrix(0.5,0,0,0.915192,473.207,133.76)">
            <rect x="888" y="1530.19" width="36" height="25.811" style="fill:rgb(0,161,35);"/>
        </g>
    </g>
    <g id="board1" serif:id="board" transform="matrix(1,0,0,1,0,-85.4016)">
        <g transform="matrix(-0.354331,0,0,0.288517,1228.83,1065.01)">
            <path d="M837,1488.19L837,1611L812,1611L837,1488.19Z" style="fill:rgb(0,161,35);"/>
        </g>
        <g transform="matrix(0.354331,0,0,0.288517,587.92,1065.01)">
            <path d="M837,1488.19L837,1611L812,1611L837,1488.19Z" style="fill:rgb(0,161,35);"/>
        </g>
        <g transform="matrix(1.32667,0,0,1.37279,-293.587,-606.248)">
            <rect x="888" y="1530.19" width="36" height="25.811" style="fill:rgb(0,161,35);"/>
        </g>
    </g>
    <g id="motor" transform="matrix(1,0,0,1,0,-85.4016)">
        <g transform="matrix(0.998386,0,0,0.349944,-4.10575,965.394)">
            <path d="M1081.25,1502.38L1022.2,1502.38C1022.2,1502.38 1025.36,1457.2 1027.06,1432.96C1027.66,1424.26 1030.34,1418 1033.45,1418L1070,1418C1073.11,1418 1075.79,1424.26 1076.39,1432.96C1078.09,1457.2 1081.25,1502.38 1081.25,1502.38Z" style="fill:rgb(180,180,180);"/>
        </g>
        <g transform="matrix(1.1024,0,0,1.13084,-23.1708,-190.358)">
            <path d="M996.569,1487.4L996.569,1515.6C996.569,1520.79 992.249,1525 986.927,1525L952.643,1525C947.321,1525 943,1520.79 943,1515.6L943,1487.4C943,1482.21 947.321,1478 952.643,1478L986.927,1478C992.249,1478 996.569,1482.21 996.569,1487.4Z" style="fill:rgb(126,126,126);"/>
        </g>
    </g>
    <g id="motor1" serif:id="motor" transform="matrix(1,0,0,1,-65.5374,-85.4016)">
        <g transform="matrix(0.998386,0,0,0.349944,-4.10575,965.394)">
            <path d="M1081.25,1502.38L1022.2,1502.38C1022.2,1502.38 1025.36,1457.2 1027.06,1432.96C1027.66,1424.26 1030.34,1418 1033.45,1418L1070,1418C1073.11,1418 1075.79,1424.26 1076.39,1432.96C1078.09,1457.2 1081.25,1502.38 1081.25,1502.38Z" style="fill:rgb(179,179,179);"/>
        </g>
        <g transform="matrix(1.1024,0,0,1.13084,-23.1708,-190.358)">
            <path d="M996.569,1487.4L996.569,1515.6C996.569,1520.79 992.249,1525 986.927,1525L952.643,1525C947.321,1525 943,1520.79 943,1515.6L943,1487.4C943,1482.21 947.321,1478 952.643,1478L986.927,1478C992.249,1478 996.569,1482.21 996.569,1487.4Z" style="fill:rgb(128,128,128);"/>
        </g>
    </g>
    <g id="s" transform="matrix(0.337396,-0.337396,0.337396,0.337396,1865.94,1145.74)">
        <path d="M1877.53,432.912C1859.26,443.461 1848,462.957 1848,484.055C1848,516.649 1874.46,543.11 1907.06,543.11C1939.67,543.11 1966.11,516.67 1966.11,484.055C1966.11,516.67 1939.67,543.11 1907.06,543.11C1874.46,543.11 1848,516.649 1848,484.055C1848,462.957 1859.26,443.461 1877.53,432.912ZM2054.69,535.198C2072.97,524.649 2084.22,505.153 2084.22,484.055C2084.22,451.462 2057.76,425 2025.16,425C1992.55,425 1966.11,451.44 1966.11,484.055C1966.11,451.44 1992.55,425 2025.16,425C2057.76,425 2084.22,451.462 2084.22,484.055C2084.22,505.153 2072.97,524.649 2054.69,535.198Z" style="fill-opacity:0;stroke:rgb(89,89,89);stroke-width:26.2px;"/>
    </g>
    <g transform="matrix(1.13568,0,0,0.952502,-338.821,78.0097)">
        <path d="M2472,611.5L2472,642.5C2472,651.055 2466.18,658 2459,658L2433,658C2425.83,658 2420,651.055 2420,642.5L2420,611.5C2420,602.945 2425.83,596 2433,596L2459,596C2466.18,596 2472,602.945 2472,611.5Z" style="fill:rgb(89,89,89);"/>
    </g>
    <g transform="matrix(1.13568,0,0,0.952502,-929.372,776.041)">
        <path d="M2472,611.5L2472,642.5C2472,651.055 2466.18,658 2459,658L2433,658C2425.83,658 2420,651.055 2420,642.5L2420,611.5C2420,602.945 2425.83,596 2433,596L2459,596C2466.18,596 2472,602.945 2472,611.5Z" style="fill:rgb(90,90,90);"/>
    </g>
    <g id="sensor" transform="matrix(1,0,0,1,0,-85.4016)">
        <g transform="matrix(0.305955,0,0,0.44071,1758.44,650.579)">
            <path d="M2205,47.4L2205,154.6C2205,161.996 2196.35,168 2185.7,168L1838.26,168C1827.61,168 1818.96,161.996 1818.96,154.6L1818.96,47.4C1818.96,40.004 1827.61,34 1838.26,34L2185.7,34C2196.35,34 2205,40.004 2205,47.4Z" style="fill:rgb(0,161,35);"/>
        </g>
        <g transform="matrix(1.05996,0,0,1.05996,-148.016,-46.354)">
            <circle cx="2351.5" cy="699.5" r="19.5" style="fill:rgb(94,94,94);"/>
        </g>
        <g transform="matrix(1.05996,0,0,1.05996,-88.9612,-46.8265)">
            <circle cx="2351.5" cy="699.5" r="19.5" style="fill:rgb(94,94,94);"/>
        </g>
    </g>
    <g transform="matrix(1,0,0,1,-393.382,1288.62)">
        <text x="685px" y="334.167px" style="font-family:'NotoSansJP-Regular', 'Noto Sans JP', sans-serif;font-size:41.667px;">開くのはモーターの力で<tspan x="1141.67px " y="334.167px ">、</tspan></text>
        <text x="685px" y="375.833px" style="font-family:'NotoSansJP-Regular', 'Noto Sans JP', sans-serif;font-size:41.667px;">閉じるのはおもりの重力で</text>
        <g transform="matrix(41.6667,0,0,41.6667,768.333,417.5)">
        </g>
        <text x="685px" y="417.5px" style="font-family:'NotoSansJP-Regular', 'Noto Sans JP', sans-serif;font-size:41.667px;">行う</text>
    </g>
    <g transform="matrix(1,0,0,1,344.225,105.451)">
        <g transform="matrix(41.6667,0,0,41.6667,557.667,1273.32)">
        </g>
        <text x="208px" y="1273.32px" style="font-family:'NotoSansJP-Regular', 'Noto Sans JP', sans-serif;font-size:41.667px;">モーター/制御基盤</text>
    </g>
    <g transform="matrix(1,0,0,1,1501.52,181.257)">
        <text x="685px" y="334.167px" style="font-family:'NotoSansJP-Regular', 'Noto Sans JP', sans-serif;font-size:41.667px;">超音波距離センサー</text>
        <g transform="matrix(41.6667,0,0,41.6667,1060,388.333)">
        </g>
        <text x="685px" y="388.333px" style="font-family:'NotoSansJP-Regular', 'Noto Sans JP', sans-serif;font-size:41.667px;">ドアの裏側にも設置</text>
    </g>
    <g transform="matrix(1,0,0,1,2156.6,1061.19)">
        <text x="685px" y="334.167px" style="font-family:'NotoSansJP-Regular', 'Noto Sans JP', sans-serif;font-size:41.667px;">おもり</text>
        <text x="685px" y="388.333px" style="font-family:'NotoSansJP-Regular', 'Noto Sans JP', sans-serif;font-size:41.667px;">ドアに挟まらない<tspan x="1017.5px " y="388.333px ">よ</tspan>うに</text>
        <g transform="matrix(41.6667,0,0,41.6667,851.667,430)">
        </g>
        <text x="685px" y="430px" style="font-family:'NotoSansJP-Regular', 'Noto Sans JP', sans-serif;font-size:41.667px;">紐で誘導</text>
    </g>
    <g transform="matrix(1,0,0,1,2075.69,647.602)">
        <text x="685px" y="334.167px" style="font-family:'NotoSansJP-Regular', 'Noto Sans JP', sans-serif;font-size:41.667px;">釣り糸</text>
        <text x="685px" y="388.333px" style="font-family:'NotoSansJP-Regular', 'Noto Sans JP', sans-serif;font-size:41.667px;">摩擦の少ない安価な釣り糸を</text>
        <g transform="matrix(41.6667,0,0,41.6667,768.333,430)">
        </g>
        <text x="685px" y="430px" style="font-family:'NotoSansJP-Regular', 'Noto Sans JP', sans-serif;font-size:41.667px;">使用</text>
    </g>
    <g transform="matrix(1,0,0,1,1137.85,1109.4)">
        <g transform="matrix(41.6667,0,0,41.6667,1226.67,334.167)">
        </g>
        <text x="685px" y="334.167px" style="font-family:'NotoSansJP-Regular', 'Noto Sans JP', sans-serif;font-size:41.667px;">マグネットを引っ掛けて固定</text>
    </g>
</svg>
